# xmcd
#
# Track frame offsets: 
#        150
#        13295
#        31687
#        51025
#        66612
#        82345
#        97605
#        112772
#        127230
#        150500
#        165940
#        179260
#        195765
#        224555
#        239450
#        252882
#        268780
#        284150
#        299915
#        314700
#        330460
#        357882
#
# Disc length: 4790 seconds
#
# Revision: 0
# Processed by: cddbd v1.5.2PL0 Copyright (c) Steve Scherf et al.
# Submitted via: ExactAudioCopy v1.0b3
#
DISCID=4f12b416
DTITLE=Various Artist - Dance Max 2004.01 - CD 2
DYEAR=1900
DGENRE=
TTITLE0=DJ Tiesto - Traffic (Radio Edit)
TTITLE1=DJ Shog - Tribute
TTITLE2=Ayu - M (Above and Beyond Edit)
TTITLE3=Voice Of Trance - Horizon
TTITLE4=Tomcraft - Brainwashed (Call You) (Radio Edit)
TTITLE5=DJ Quicksilver - Equinoxe IV (Video Edit)
TTITLE6=Tukan - Wonder Of Life (Radio Mix)
TTITLE7=Mario Lopez - Eternal Sounds
TTITLE8=Hard Body Babes - Goin' Crazy
TTITLE9=Floorfilla - Anthem #6 (Cassez La Boite) (DJ Cerla Floorfiller
TTITLE9=Radio)
TTITLE10=Lingen and Moore - Passion
TTITLE11=Driftwood - Anything Goes (Original Radio Mix)
TTITLE12=Kid Q - Save Me
TTITLE13=Tronic Heads - Oxygen
TTITLE14=Lorna - Papi Chulo... Te Traigo El Mmmm (Radio Edit)
TTITLE15=Claudia Mangione - Mondo Grande (Radio Mix)
TTITLE16=Boom Boxx - Boom Boom Boom 2003 (Radio Edit)
TTITLE17=Spike Vs. Nomad - I Wanna Give You) Devotion (Radio Mix (Club
TTITLE17=Anthem Short))
TTITLE18=Raccoon - Rock The Floor (Radio Edit)
TTITLE19=DJ Z-Man Feat. E-Vonne - Sorry Sorry
TTITLE20=Brooklyn Bounce - Get Ready To Bounce (Radio Attack)
TTITLE21=Data-Track
EXTD=
EXTT0=
EXTT1=
EXTT2=
EXTT3=
EXTT4=
EXTT5=
EXTT6=
EXTT7=
EXTT8=
EXTT9=
EXTT10=
EXTT11=
EXTT12=
EXTT13=
EXTT14=
EXTT15=
EXTT16=
EXTT17=
EXTT18=
EXTT19=
EXTT20=
EXTT21=
PLAYORDER=
